<svg width="20" height="20" viewBox="0 0 20 20" fill="none" xmlns="http://www.w3.org/2000/svg">
<g clip-path="url(#clip0_42_1006)">
<path d="M18.2997 14.1452V16.6542C18.3006 16.8871 18.2529 17.1177 18.1595 17.3311C18.0663 17.5445 17.9294 17.7361 17.7577 17.8936C17.5861 18.0511 17.3835 18.1709 17.1629 18.2455C16.9423 18.3201 16.7084 18.3478 16.4764 18.3269C13.9029 18.0472 11.4308 17.1679 9.25886 15.7594C7.23813 14.4753 5.5249 12.7621 4.24085 10.7414C2.82742 8.55949 1.94782 6.0754 1.67329 3.49029C1.65239 3.25902 1.67988 3.02592 1.754 2.80585C1.82812 2.58578 1.94725 2.38355 2.10381 2.21205C2.26036 2.04054 2.45092 1.90351 2.66334 1.80969C2.87576 1.71587 3.10539 1.66729 3.33761 1.66707H5.84661C6.25249 1.66308 6.64597 1.80681 6.95373 2.07147C7.26147 2.33613 7.46248 2.70367 7.51928 3.10557C7.62518 3.90851 7.82158 4.6969 8.10472 5.45568C8.21724 5.75502 8.24159 6.08035 8.17489 6.39311C8.10819 6.70587 7.95323 6.99296 7.72837 7.22035L6.66622 8.2825C7.85679 10.3763 9.59041 12.1099 11.6842 13.3005L12.7464 12.2384C12.9737 12.0135 13.2609 11.8585 13.5736 11.7919C13.8864 11.7252 14.2117 11.7495 14.5111 11.862C15.2698 12.1451 16.0582 12.3416 16.8612 12.4475C17.2674 12.5048 17.6385 12.7094 17.9037 13.0225C18.1689 13.3355 18.3098 13.735 18.2997 14.1452Z" stroke="white" stroke-width="1.5" stroke-linecap="round" stroke-linejoin="round"/>
</g>
<defs>
<clipPath id="clip0_42_1006">
<rect width="20" height="20" fill="white"/>
</clipPath>
</defs>
</svg>
